#!OML:ASF H:\BabyWalks\Project 1\Capture day 1\Session 1\baby.ASF
:FULLY-SPECIFIED
:DEGREES
469
root 20.0476 17.3588 4.79484 -4.80152 42.5438 -6.54077
lowerback 20.5085 2.15633 -0.582818
upperback 5.61928 2.72012 -2.12234
thorax -5.27259 1.40612 -2.61556
lowerneck -3.44558 -1.11013 5.15588
upperneck 0.205607 -1.6851 0.486131
head 0.59524 -0.825288 -0.730319
rclavicle -1.86858e-014 -3.33958e-014
rhumerus -43.9661 11.0414 -87.6244
rradius 59.8804
rwrist 6.07686
rhand -11.7421 -17.4183
rfingers 7.12502
rthumb 14.3055 -46.9055
lclavicle -1.86858e-014 -3.33958e-014
lhumerus -40.6394 -3.83225 75.8394
lradius 55.911
lwrist -4.16386
lhand -7.32872 8.94428
lfingers 7.12502
lthumb 18.5546 38.0794
rfemur -13.949 -2.83064 20.937
rtibia 66.5152
rfoot -7.95285 7.32063
rtoes -17.7476
lfemur -19.38 -2.60631 -18.8401
ltibia 40.3673
lfoot -20.972 -5.76534
ltoes 5.64294
470
root 20.1102 17.3785 4.89054 -4.9109 43.0907 -6.64142
lowerback 20.4952 2.03311 -0.600676
upperback 5.65897 2.56325 -2.07025
thorax -5.23222 1.33124 -2.50945
lowerneck -3.43209 -1.16368 5.01385
upperneck 0.179919 -1.75019 0.526103
head 0.584531 -0.858341 -0.69441
rclavicle -1.78906e-014 -1.59028e-015
rhumerus -44.0738 10.6629 -87.2426
rradius 58.6998
rwrist 6.52355
rhand -10.8168 -17.5726
rfingers 7.12502
rthumb 15.1969 -46.9945
lclavicle -1.78906e-014 -1.59028e-015
lhumerus -40.3974 -4.41493 76.3004
lradius 57.5603
lwrist -3.73391
lhand -7.80914 8.60514
lfingers 7.12502
lthumb 18.0925 37.7837
rfemur -15.015 -2.9817 20.9445
rtibia 66.4123
rfoot -8.53574 7.27087
rtoes -17.5289
lfemur -18.8083 -3.09955 -18.7882
ltibia 40.0253
lfoot -21.132 -5.76552
ltoes 5.49094
471
root 20.172 17.3994 4.98637 -5.01668 43.6284 -6.72223
lowerback 20.4858 1.92342 -0.647713
upperback 5.70242 2.41881 -2.00864
thorax -5.19053 1.26252 -2.37977
lowerneck -3.40525 -1.22212 4.87433
upperneck 0.14321 -1.82095 0.56689
head 0.568176 -0.894458 -0.658568
rclavicle -8.38871e-014 1.27222e-014
rhumerus -44.2024 10.2599 -86.8228
rradius 57.5849
rwrist 6.8203
rhand -10.0272 -17.7126
rfingers 7.12502
rthumb 15.9574 -47.0753
lclavicle -8.38871e-014 1.27222e-014
lhumerus -40.1883 -4.99643 76.7547
lradius 59.2316
lwrist -3.27792
lhand -8.17882 8.25437
lfingers 7.12502
lthumb 17.7368 37.4654
rfemur -16.0171 -3.10202 20.949
rtibia 66.0773
rfoot -9.12177 7.20704
rtoes -17.3666
lfemur -18.2063 -3.5868 -18.7495
ltibia 39.6432
lfoot -21.2658 -5.77111
ltoes 5.38419
472
root 20.2327 17.4157 5.08219 -5.11294 44.1508 -6.77345
lowerback 20.4821 1.82715 -0.727635
upperback 5.74865 2.28548 -1.94422
thorax -5.14911 1.19933 -2.2314
lowerneck -3.37791 -1.28603 4.74087
upperneck 0.114336 -1.89948 0.610631
head 0.554145 -0.934246 -0.623044
rclavicle -4.33351e-014 1.90833e-014
rhumerus -44.3459 9.83926 -86.378
rradius 56.5293
rwrist 6.96602
rhand -9.36423 -17.8551
rfingers 7.12502
rthumb 16.5958 -47.1655
lclavicle -4.33351e-014 1.90833e-014
lhumerus -40.0117 -5.57066 77.1914
lradius 60.9058
lwrist -2.7985
lhand -8.44878 7.88149
lfingers 7.12502
lthumb 17.477 37.1159
rfemur -16.9679 -3.18007 20.9398
rtibia 65.5426
rfoot -9.69669 7.10499
rtoes -17.1638
lfemur -17.5856 -4.0535 -18.7318
ltibia 39.2346
lfoot -21.3764 -5.78556
ltoes 5.31308
473
root 20.2938 17.4383 5.17853 -5.19373 44.6532 -6.78662
lowerback 20.4877 1.74698 -0.837496
upperback 5.79632 2.1669 -1.88246
thorax -5.11081 1.14339 -2.0729
lowerneck -3.35536 -1.35719 4.60758
upperneck 0.099609 -1.98845 0.669039
head 0.545357 -0.978801 -0.583367
rclavicle -8.07066e-014 7.15625e-014
rhumerus -44.4996 9.39615 -85.9116
rradius 55.5265
rwrist 6.97052
rhand -8.82351 -17.9997
rfingers 7.12502
rthumb 17.1163 -47.2658
lclavicle -8.07066e-014 7.15625e-014
lhumerus -39.862 -6.1455 77.6088
lradius 62.566
lwrist -2.29188
lhand -8.63443 7.49486
lfingers 7.12502
lthumb 17.2983 36.745
rfemur -17.8281 -3.21345 20.9076
rtibia 64.7822
rfoot -10.2593 6.9413
rtoes -16.9549
lfemur -16.9154 -4.48751 -18.7418
ltibia 38.7786
lfoot -21.4712 -5.81302
ltoes 5.25349
474
root 20.3545 17.4603 5.27498 -5.26427 45.1427 -6.77138
lowerback 20.5084 1.67761 -0.963466
upperback 5.84043 2.05852 -1.82512
thorax -5.08344 1.09231 -1.91324
lowerneck -3.34151 -1.43764 4.47556
upperneck 0.113027 -2.09112 0.743285
head 0.546776 -1.02948 -0.5396
rclavicle -2.98177e-014 3.81667e-014
rhumerus -44.6687 8.93245 -85.4317
rradius 54.5747
rwrist 6.86648
rhand -8.39561 -18.148
rfingers 7.12502
rthumb 17.5282 -47.3778
lclavicle -2.98177e-014 3.81667e-014
lhumerus -39.742 -6.72361 78.0023
lradius 64.1953
lwrist -1.76453
lhand -8.76014 7.09273
lfingers 7.12502
lthumb 17.1773 36.3535
rfemur -18.6166 -3.19977 20.8601
rtibia 63.8319
rfoot -10.8037 6.68932
rtoes -16.6935
lfemur -16.2221 -4.8874 -18.7717
ltibia 38.3004
lfoot -21.5527 -5.85771
ltoes 5.18656
475
root 20.4148 17.4817 5.3715 -5.33173 45.6211 -6.73971
lowerback 20.5455 1.61755 -1.09027
upperback 5.88091 1.96136 -1.77219
thorax -5.06737 1.04659 -1.76127
lowerneck -3.32991 -1.52535 4.34371
upperneck 0.144266 -2.20419 0.836574
head 0.554287 -1.08482 -0.490413
rclavicle -2.38542e-015 1.74931e-014
rhumerus -44.8492 8.44679 -84.9413
rradius 53.6691
rwrist 6.67343
rhand -8.04681 -18.3231
rfingers 7.12502
rthumb 17.8638 -47.5226
lclavicle -2.38542e-015 1.74931e-014
lhumerus -39.6469 -7.3115 78.3731
lradius 65.7821
lwrist -1.2239
lhand -8.84058 6.69238
lfingers 7.12502
lthumb 17.0999 35.9599
rfemur -19.3297 -3.15228 20.802
rtibia 62.6896
rfoot -11.3236 6.3491
rtoes -16.4347
lfemur -15.5024 -5.24831 -18.8115
ltibia 37.7858
lfoot -21.614 -5.92743
ltoes 5.10658
476
root 20.4749 17.5023 5.46797 -5.40165 46.096 -6.70498
lowerback 20.5975 1.56108 -1.20447
upperback 5.91792 1.87075 -1.72296
thorax -5.06139 1.00395 -1.62257
lowerneck -3.32918 -1.61805 4.21969
upperneck 0.197774 -2.32539 0.94056
head 0.570673 -1.14365 -0.439812
rclavicle -2.8625e-014 -6.36111e-015
rhumerus -45.0339 7.94696 -84.4446
rradius 52.8047
rwrist 6.42088
rhand -7.76469 -18.515
rfingers 7.12502
rthumb 18.1352 -47.6895
lclavicle -2.8625e-014 -6.36111e-015
lhumerus -39.5746 -7.90031 78.7187
lradius 67.3242
lwrist -0.681787
lhand -8.88436 6.30879
lfingers 7.12502
lthumb 17.0578 35.5799
rfemur -19.9722 -3.07767 20.7407
rtibia 61.3739
rfoot -11.8231 5.92428
rtoes -16.176
lfemur -14.7775 -5.57337 -18.8504
ltibia 37.2671
lfoot -21.6724 -6.02014
ltoes 4.99274
477
root 20.5345 17.5226 5.56438 -5.46541 46.5636 -6.66769
lowerback 20.6586 1.50965 -1.30691
upperback 5.94821 1.78829 -1.6773
thorax -5.06625 0.965127 -1.49675
lowerneck -3.33325 -1.71621 4.09561
upperneck 0.264574 -2.45463 1.06111
head 0.59233 -1.20603 -0.384563
rclavicle -5.08889e-014 1.19271e-014
rhumerus -45.223 7.43917 -83.9437
rradius 51.9766
rwrist 6.14251
rhand -7.54533 -18.7063
rfingers 7.12502
rthumb 18.3463 -47.8611
lclavicle -5.08889e-014 1.19271e-014
lhumerus -39.5222 -8.49556 79.0411
lradius 68.808
lwrist -0.145145
lhand -8.90892 5.95485
lfingers 7.12502
lthumb 17.0341 35.228
rfemur -20.5547 -2.97531 20.6753
rtibia 59.8884
rfoot -12.2948 5.42847
rtoes -15.9286
lfemur -14.0595 -5.85932 -18.8859
ltibia 36.748
lfoot -21.7275 -6.13552
ltoes 4.8572
478
root 20.5936 17.5426 5.66077 -5.5247 47.0317 -6.63737
lowerback 20.7246 1.45918 -1.39244
upperback 5.97171 1.7099 -1.63277
thorax -5.07992 0.928151 -1.38293
lowerneck -3.34864 -1.81542 3.99166
upperneck 0.344142 -2.58684 1.16934
head 0.61981 -1.26969 -0.336904
rclavicle -1.19271e-014 3.4191e-014
rhumerus -45.4146 6.93033 -83.4409
rradius 51.1839
rwrist 5.86455
rhand -7.37416 -18.881
rfingers 7.12502
rthumb 18.5109 -48.0203
lclavicle -1.19271e-014 3.4191e-014
lhumerus -39.4881 -9.07409 79.3384
lradius 70.238
lwrist 0.361368
lhand -8.89922 5.64541
lfingers 7.12502
lthumb 17.0434 34.9178
rfemur -21.0793 -2.84969 20.6106
rtibia 58.233
rfoot -12.7196 4.87517
rtoes -15.6756
lfemur -13.3584 -6.11547 -18.9093
ltibia 36.2318
lfoot -21.782 -6.27457
ltoes 4.72224
479
root 20.6521 17.5622 5.75713 -5.57872 47.5005 -6.61991
lowerback 20.7871 1.40787 -1.45846
upperback 5.98965 1.63406 -1.58876
thorax -5.09681 0.892288 -1.28124
lowerneck -3.36382 -1.91479 3.8939
upperneck 0.419396 -2.71953 1.28395
head 0.646265 -1.33354 -0.288427
rclavicle -1.03368e-014 4.77083e-015
rhumerus -45.6039 6.43057 -82.9422
rradius 50.4258
rwrist 5.60535
rhand -7.2493 -19.0363
rfingers 7.12502
rthumb 18.631 -48.164
lclavicle -1.03368e-014 4.77083e-015
lhumerus -39.4664 -9.63282 79.6103
lradius 71.6058
lwrist 0.83117
lhand -8.86252 5.38625
lfingers 7.12502
lthumb 17.0788 34.6556
rfemur -21.5512 -2.69857 20.5488
rtibia 56.4098
rfoot -13.0936 4.29068
rtoes -15.4469
lfemur -12.6836 -6.33954 -18.9144
ltibia 35.7213
lfoot -21.8347 -6.44323
ltoes 4.61074
